<svg xmlns="http://www.w3.org/2000/svg"  viewBox="0 0 481.01 481.01" width="1024px" height="1024px"><path fill="#b9dcff" d="M433.18,190.065c0.012,0.077,0.021,0.154,0.032,0.231c-2.435-16.182-12.668-29.474-5.666-50.302	c1.535-4.565-1.277-9.434-5.998-10.387c-22.021-4.446-28.174-20.531-41.603-30.728c0.119,0.091,0.247,0.175,0.366,0.266l0.21-0.27	c6.58-22.62-2.81-47.63-24.12-59.93c-21.34-12.32-47.76-7.91-64.04,9.18c-14.98-5.521-31.193-3.746-45.409-19.89	c-3.175-3.606-8.824-3.499-12.009,0.098c-14.47,16.347-31.015,14.222-46.192,20.12c0.057-0.022,0.114-0.047,0.171-0.068	c-16.27-17.3-42.85-21.82-64.3-9.44c-21.31,12.3-30.7,37.3-24.12,59.92c-12.688,10.194-19.103,25.541-40.462,29.901	c-4.755,0.971-7.632,5.809-6.087,10.409c6.987,20.794-3.214,34.043-5.662,50.238c0.014-0.096,0.026-0.192,0.041-0.288	c-23.11,5.44-40.32,26.19-40.32,50.97c0,24.6,16.97,45.22,39.83,50.85c2.494,16.074,12.573,29.305,5.662,49.982	c-1.539,4.604,1.218,9.517,5.976,10.478c22.016,4.448,28.168,20.529,41.595,30.725c-0.119-0.09-0.246-0.174-0.363-0.265l-0.21,0.27	c-6.58,22.62,2.81,47.63,24.12,59.93c21.34,12.32,47.76,7.91,64.04-9.18c14.98,5.521,31.193,3.746,45.409,19.89	c3.175,3.606,8.823,3.501,12.007-0.096c14.459-16.338,30.983-14.224,46.153-20.106c-0.043,0.017-0.086,0.035-0.129,0.052	c16.27,17.3,42.85,21.82,64.3,9.44c21.31-12.3,30.7-37.3,24.12-59.92c12.688-10.194,19.105-25.542,40.464-29.902	c4.755-0.971,7.629-5.808,6.083-10.408c-6.986-20.793,3.215-34.044,5.663-50.238c-0.014,0.096-0.026,0.192-0.041,0.288	c23.11-5.44,40.32-26.19,40.32-50.97C473.01,216.315,456.04,195.695,433.18,190.065z"/><path fill="#d1e7ff" d="M433.18,190.065c22.86,5.63,39.83,26.25,39.83,50.85c0,24.78-17.21,45.53-40.32,50.97	c3.396-21.711-10.145-45.327-34.13-50.91C422.698,235.64,436.575,211.901,433.18,190.065z"/><path fill="#d1e7ff" d="M356.4,38.945c21.31,12.3,30.7,37.31,24.12,59.93l-0.21,0.27	c-16.659-12.931-43.544-13.262-60.36,4.72c7.502-23.766-6.314-47.924-27.59-55.74C308.64,31.035,335.06,26.625,356.4,38.945z"/><path fill="#d1e7ff" d="M380.52,382.145c6.58,22.62-2.81,47.62-24.12,59.92c-21.45,12.38-48.03,7.86-64.3-9.44	c20.346-7.796,34.218-31.34,27.03-55.01C335.758,395.786,363.245,396.067,380.52,382.145z"/><path fill="#d1e7ff" d="M188.92,48.385c-20.346,7.796-34.218,31.34-27.03,55.01c-16.628-18.17-44.115-18.452-61.39-4.53	c-6.58-22.62,2.81-47.62,24.12-59.92C146.07,26.565,172.65,31.085,188.92,48.385z"/><path fill="#d1e7ff" d="M188.66,432.885c-16.28,17.09-42.7,21.5-64.04,9.18c-21.31-12.3-30.7-37.31-24.12-59.93l0.21-0.27	c16.659,12.931,43.544,13.262,60.36-4.72C153.568,400.911,167.384,425.069,188.66,432.885z"/><path fill="#d1e7ff" d="M82.46,240.035c-24.138,5.335-38.014,29.074-34.62,50.91c-22.86-5.63-39.83-26.25-39.83-50.85	c0-24.78,17.21-45.53,40.32-50.97C44.935,210.836,58.475,234.452,82.46,240.035z"/><path fill="#d1e7ff" d="M76.802,338.032c0.938,8.819-7.076,15.763-15.708,13.726c-0.528-0.125-1.068-0.243-1.615-0.353	c-4.76-0.96-7.516-5.868-5.976-10.478c6.91-20.67-3.172-33.912-5.662-49.982c-2.72-17.506,5.65-36.217,21.508-45.71	c5.857-3.506,13.118,0.603,13.618,7.285c1.096,14.632,4.187,28.696,9.004,41.935C77.757,309.159,75.38,324.666,76.802,338.032z"/><path fill="#d1e7ff" d="M249.29,30.716c5.561,5.498,3.915,14.922-3.316,17.899c-13.995,5.76-24.691,17.813-29.809,30.545	c-1.376,3.423-4.432,5.91-8.044,6.662c-10.928,2.276-21.875,5.818-32.15,10.426c-8.031,3.602-16.706-2.796-15.676-11.103	c1.456-11.743,7.681-22.747,17.866-30.739c17.75-13.92,38.862-5.822,56.782-26.072c3.19-3.6,8.839-3.708,12.009-0.098	C247.725,29.113,248.504,29.939,249.29,30.716z"/><path fill="#d1e7ff" d="M319.93,103.895c-48.657-28.364-109.177-28.547-158.03-0.48	c-47.518,27.314-79.39,78.536-79.39,137.09c0,87.13,70.634,158,158,158c87.54,0,157.748-70.923,158-157.53	C398.51,182.238,367.098,131.368,319.93,103.895z"/><path fill="#d1e7ff" d="M286.9,240.505c15.236-5.887,24.317-20.545,23.591-36.162c-0.12-2.589-1.495-4.966-3.676-6.366	c-13.273-8.52-30.561-7.802-43.115,2.359c2.506-16.018-5.51-31.281-19.51-38.52c-2.305-1.192-5.055-1.192-7.36,0	c-13.997,7.237-22.016,22.499-19.51,38.52c-12.552-10.159-29.837-10.881-43.112-2.359c-2.181,1.4-3.558,3.779-3.678,6.368	c-0.725,15.606,8.343,30.27,23.591,36.161c-15.259,5.896-24.314,20.568-23.59,36.162c0.12,2.589,1.497,4.968,3.678,6.368	c13.273,8.52,30.558,7.801,43.112-2.359c-2.506,16.018,5.51,31.28,19.51,38.519c2.305,1.192,5.055,1.192,7.36,0	c13.997-7.237,22.016-22.498,19.51-38.519c12.552,10.159,29.839,10.88,43.115,2.359c2.181-1.4,3.556-3.777,3.676-6.366	C311.216,261.063,302.148,246.396,286.9,240.505z"/><path fill="#e8f3ff" d="M170.53,204.344c0.12-2.59,1.488-4.968,3.678-6.368c3.956-2.542,8.272-4.262,12.711-5.155	c6.072-1.222,9.414,6.823,4.315,10.34c-3.263,2.251-5.528,5.121-5.693,8.664c-0.14,3.018,0.015,6.008,0.449,8.932	c0.92,6.207-7.399,9.29-10.543,3.859C171.948,218.577,170.19,211.559,170.53,204.344z"/><path fill="#e8f3ff" d="M227.827,198.508c-7.802-2.318-11.115-10.192-8.687-16.753c3.133-8.468,9.351-15.624,17.691-19.939	c7.955-4.098,17.049,6.452,11.902,15.763c-1.991,3.602-3.496,7.477-4.454,11.529C242.55,196.417,235.026,200.647,227.827,198.508z"/><path fill="#e8f3ff" d="M200.126,265.845c-3.939,3.641-7.163,7.916-9.572,12.608c-5.113,9.959-19.602,7.308-20.024-1.787	c-0.527-11.373,4.153-22.265,12.651-29.609c4.852-4.193,12.077-4.023,16.762,0.355C205.759,252.85,205.19,261.165,200.126,265.845z"/><path fill="#e8f3ff" d="M249.942,82.788c19.48,1.181,20.593,29.512,1.238,32.011	c-70.192,9.063-126.972,64.17-136.355,136.674c-2.492,19.258-30.795,18.358-32-1.024C76.799,153.512,157.097,77.159,249.942,82.788z"/><path fill="#d1e7ff" d="M161.9,103.415c-50.635,29.117-79.222,80.939-79.39,136.625c-18.9-4.476-31.651-19.709-34.34-38.585	c-3.18-22.43,14.411-36.6,5.781-62.28c-1.54-4.6,1.327-9.439,6.087-10.409c21.35-4.36,27.772-19.711,40.462-29.901	C117.955,84.795,145.399,85.389,161.9,103.415z"/><path fill="#e8f3ff" d="M137.199,56.123c-9.837,8.202-16.763,20.06-18.399,34.093c-7.642,1.699-13.332,4.646-18.3,8.65	c-6.628-22.786,2.944-48.073,24.741-60.273C136.53,32.273,147.135,47.838,137.199,56.123z"/><path fill="#e8f3ff" d="M9.462,228.17c4.178-18.061,17.6-34.038,38.868-39.045c-1.45,9.268,0.172,18.365,4.14,26.66	c-8.445,5.323-14.809,12.609-18.926,20.855C26.689,250.373,6.003,243.124,9.462,228.17z"/><path fill="#2e58ff" d="M439.558,298.257c37.482-12.259,52.321-55.851,32.929-88.277c-2.267-3.792-7.18-5.028-10.972-2.76 s-5.028,7.18-2.76,10.972c12.866,21.514,5.371,50.331-17.757,62.175c-1.531-15.313-9.575-30.082-22.801-39.276 c12.279-8.321,20.784-21.794,23.046-37.685c1.656-11.632-1.42-21.369-4.134-29.959c-3.838-12.147-7.152-22.637,1.539-38.949 c2.773-5.205-0.864-11.555-6.788-11.757c-32.293-1.099-32.145-26.157-58.378-36.701c-14.646-5.887-30.346-5.355-43.585,0.861 c-0.099-1.389-0.254-2.779-0.467-4.168c-0.667-4.368-4.746-7.368-9.117-6.7c-4.368,0.667-7.367,4.749-6.7,9.117 c0.333,2.177,0.454,4.36,0.382,6.538c-28.722-14.241-60.526-19.635-91.9-16.171c-4.392,0.485-7.559,4.438-7.074,8.83 c0.485,4.391,4.438,7.558,8.83,7.073c89.296-9.861,166.658,60.226,166.658,149.086c0,82.71-67.29,150-150,150s-150-67.29-150-150 c0-53.564,28.884-103.436,75.38-130.154c3.36-1.931,4.788-5.93,3.603-9.468c-5.762-19.297,5.571-38.519,22.157-44.979 c15.822-5.741,33.362-4.162,49.336-22.322c16.121,18.328,34.536,16.846,48.646,22.061c3.322,1.229,6.937,0.106,9.03-2.524 c19.99-20.289,53.069-16.462,68.41,6.456c2.469,3.689,7.444,4.645,11.098,2.198c3.672-2.458,4.656-7.427,2.198-11.098 c-19.992-29.87-62.41-36.18-90.105-11.637c-16.506-4.74-30.241-3.493-42.489-23.132c-3.119-5.002-10.437-5.034-13.576,0 c-12.444,19.953-26.453,18.35-43.198,23.341c-25.628-22.985-64.501-19.524-86.153,5.882c-2.866,3.363-2.463,8.412,0.9,11.278 c3.356,2.86,8.406,2.47,11.278-0.9c14.141-16.593,38.81-20.814,57.762-8.563c-12.495,8.981-21.264,23.333-22.613,39.384 c-13.346-6.474-29.267-7.102-44.16-1.116c-10.902,4.382-17.796,11.914-23.878,18.56c-8.601,9.397-16.028,17.512-34.5,18.142 c-5.901,0.201-9.572,6.533-6.788,11.757c15.218,28.562-6.587,40.873-2.595,68.908c2.227,15.64,10.55,28.983,22.571,37.338 c-13.502,9.15-21.628,23.975-23.248,39.383c-21.26-11.227-29.396-37.238-19.205-58.414c1.916-3.981,0.241-8.762-3.74-10.678 c-3.981-1.917-8.762-0.241-10.678,3.74c-15.451,32.11,0.216,71.559,34.995,83.307c4.035,17.108,12.522,28.428,1.425,49.255 c-2.772,5.202,0.86,11.555,6.788,11.757c32.345,1.101,32.103,26.14,58.378,36.701c14.636,5.883,30.329,5.355,43.563-0.851 c0.565,8.112,3.071,16.058,7.459,23.352c2.288,3.803,7.21,5,10.979,2.731c3.786-2.277,5.009-7.193,2.732-10.979 c-3.713-6.172-5.483-13.009-5.25-19.904c45.254,22.438,99.379,23.236,146.038,0.468c0.248,11.534-5.116,22.657-15.137,30.516 c-15.562,12.203-38.094,4.618-57.889,27.122c-11.717-13.321-24.655-16.182-36.295-18.755c-13.417-2.966-12.217-3.757-15.02-3.775 c-2.172-0.015-4.254,0.856-5.766,2.397c-22.553,23.04-58.018,15.597-71.409-9.899c-2.054-3.912-6.89-5.417-10.802-3.363 c-3.912,2.054-5.417,6.891-3.363,10.802c17.838,33.964,63.574,43.527,93.361,17.131c16.524,4.749,30.256,3.495,42.506,23.137 c3.119,5.002,10.436,5.034,13.576,0c17.126-27.46,38.69-14.732,60.974-32.206c12.432-9.749,19.824-23.628,21.05-38.216 c14.672,7.117,31.573,6.742,45.732,0.45c0.907,24.132-17.712,44.217-41.243,45.85c-4.408,0.306-7.733,4.127-7.427,8.534 c0.307,4.415,4.137,7.735,8.535,7.427c37.625-2.61,64.569-39.358,53.816-76.828c-1.145-4.369-5.666-6.906-9.971-5.655 c-3.143,0.914-4.553,3.801-11.248,6.492c-12.015,4.829-24.484,3.797-34.411-2.419c41.428-27.74,69.729-73.616,73.455-126.177 c14.055,7.734,20.888,24.028,18.727,38.134c-2.97,16.671-13.073,31-5.335,53.897c-2.989,0.605-5.828,1.42-8.554,2.451 c-4.132,1.563-6.215,6.18-4.652,10.313c1.211,3.201,4.253,5.172,7.484,5.172c3.663,0,5.785-2.823,17.632-3.227 c5.901-0.201,9.572-6.533,6.788-11.757C427.115,326.585,435.508,315.253,439.558,298.257z M56.092,200.326 c-2.786-19.579,15.047-35.299,5.457-63.694c29.36-5.886,34.138-29.219,52.432-36.572c11.989-4.818,24.429-3.801,34.347,2.379 c-42.522,28.463-69.708,75.253-73.38,126.223C64.845,223.107,57.887,212.926,56.092,200.326z M113.505,380.126 c-18.349-7.375-23.047-30.681-52.432-36.572c9.604-28.434-8.263-43.975-5.456-63.694c1.823-12.8,8.932-23.071,19.254-28.566 c3.393,52.631,31.414,98.662,72.641,126.648C137.643,383.935,125.329,384.878,113.505,380.126z M406.15,229.717 c-3.393-52.631-31.414-98.662-72.64-126.648c9.868-5.993,22.18-6.937,34.006-2.184c18.349,7.375,23.046,30.681,52.432,36.572 c-9.583,28.369,8.234,44.174,5.456,63.694C423.581,213.95,416.472,224.221,406.15,229.717z"/><path fill="#2e58ff" d="M209.539,186.86c-15.077-5.58-31.577-2.436-43.62,7.233c-1.561,1.252-2.595,3.044-2.899,5.021 c-2.336,15.163,3.079,31.047,15.546,41.391c-12.394,10.284-17.892,26.162-15.546,41.391c0.304,1.977,1.338,3.769,2.899,5.021 c11.94,9.584,28.403,12.865,43.62,7.233c2.709,15.875,13.711,28.575,28.072,34.159c1.855,0.721,3.922,0.729,5.799,0 c14.291-5.556,25.345-18.18,28.072-34.159c15.137,5.603,31.634,2.39,43.62-7.233c1.561-1.252,2.595-3.044,2.899-5.021 c2.336-15.163-3.079-31.047-15.546-41.391c12.394-10.284,17.892-26.162,15.546-41.391c-0.673-4.367-4.76-7.361-9.124-6.689 c-4.367,0.672-7.362,4.757-6.689,9.124c2.04,13.248-5.047,26.424-18.171,31.494c-6.808,2.63-6.806,12.295,0,14.925 c11.366,4.391,18.982,15.25,18.47,28.319c-10.997,6.939-24.217,5.859-33.76-1.835c-5.68-4.581-14.052,0.254-12.926,7.462 c1.884,12.059-3.735,24.074-15.29,30.154c-11.548-6.077-17.175-18.087-15.29-30.154c1.126-7.211-7.245-12.042-12.926-7.462 c-9.554,7.704-22.774,8.766-33.76,1.835c-0.511-13.04,7.077-23.918,18.47-28.319c6.808-2.63,6.806-12.295,0-14.925 c-11.366-4.391-18.981-15.25-18.47-28.319c11.006-6.942,24.222-5.855,33.76,1.835c5.682,4.582,14.052-0.254,12.926-7.462 c-1.884-12.059,3.735-24.074,15.29-30.154c11.548,6.077,17.175,18.087,15.29,30.154c-0.682,4.365,2.304,8.457,6.669,9.139 c4.366,0.682,8.457-2.304,9.139-6.669c3.323-21.281-8.682-41.276-28.199-48.865c-1.865-0.725-3.934-0.725-5.799,0 C223.32,158.258,212.266,170.881,209.539,186.86z"/><path fill="#2e58ff" d="M146.65,177.077l-8.66-5c-3.826-2.209-8.719-0.899-10.928,2.928 c-2.209,3.826-0.898,8.719,2.928,10.928l8.66,5c3.81,2.199,8.709,0.915,10.928-2.928 C151.787,184.179,150.476,179.286,146.65,177.077z"/><path fill="#2e58ff" d="M334.371,303.933l8.66,5c3.81,2.199,8.709,0.915,10.928-2.928c2.209-3.826,0.898-8.719-2.928-10.928 l-8.66-5c-3.826-2.209-8.719-0.898-10.928,2.928C329.234,296.831,330.545,301.724,334.371,303.933z"/><path fill="#2e58ff" d="M342.371,190.933l8.66-5c3.826-2.209,5.137-7.102,2.928-10.928 c-2.209-3.827-7.102-5.136-10.928-2.928l-8.66,5c-3.826,2.209-5.137,7.102-2.928,10.928 C333.663,191.85,338.562,193.133,342.371,190.933z"/><path fill="#2e58ff" d="M138.65,290.077l-8.66,5c-3.826,2.209-5.137,7.102-2.928,10.928 c2.22,3.845,7.119,5.127,10.928,2.928l8.66-5c3.826-2.209,5.137-7.102,2.928-10.928 C147.369,289.179,142.476,287.869,138.65,290.077z"/><path fill="#2e58ff" d="M248.51,127.505v-10c0-4.418-3.582-8-8-8s-8,3.582-8,8v10c0,4.418,3.582,8,8,8 S248.51,131.923,248.51,127.505z"/><path fill="#2e58ff" d="M232.51,353.505v10c0,4.418,3.582,8,8,8s8-3.582,8-8v-10c0-4.418-3.582-8-8-8 S232.51,349.087,232.51,353.505z"/><circle cx="240.51" cy="240.505" r="10" fill="#2e58ff"/></svg>